<svg version="1.1" xmlns="http://www.w3.org/2000/svg" xmlns:xlink="http://www.w3.org/1999/xlink" width="677.8271484375" height="516"><defs/><g><text fill="#eeeeee" stroke="none" font-family="Arial" font-size="24px" font-style="normal" font-weight="normal" text-decoration="none" x="0" y="0">UNREGISTERED</text><text fill="#eeeeee" stroke="none" font-family="Arial" font-size="24px" font-style="normal" font-weight="normal" text-decoration="none" x="0" y="30">UNREGISTERED</text><text fill="#eeeeee" stroke="none" font-family="Arial" font-size="24px" font-style="normal" font-weight="normal" text-decoration="none" x="0" y="60">UNREGISTERED</text><text fill="#eeeeee" stroke="none" font-family="Arial" font-size="24px" font-style="normal" font-weight="normal" text-decoration="none" x="0" y="90">UNREGISTERED</text><text fill="#eeeeee" stroke="none" font-family="Arial" font-size="24px" font-style="normal" font-weight="normal" text-decoration="none" x="0" y="120">UNREGISTERED</text><text fill="#eeeeee" stroke="none" font-family="Arial" font-size="24px" font-style="normal" font-weight="normal" text-decoration="none" x="0" y="150">UNREGISTERED</text><text fill="#eeeeee" stroke="none" font-family="Arial" font-size="24px" font-style="normal" font-weight="normal" text-decoration="none" x="0" y="180">UNREGISTERED</text><text fill="#eeeeee" stroke="none" font-family="Arial" font-size="24px" font-style="normal" font-weight="normal" text-decoration="none" x="0" y="210">UNREGISTERED</text><text fill="#eeeeee" stroke="none" font-family="Arial" font-size="24px" font-style="normal" font-weight="normal" text-decoration="none" x="0" y="240">UNREGISTERED</text><text fill="#eeeeee" stroke="none" font-family="Arial" font-size="24px" font-style="normal" font-weight="normal" text-decoration="none" x="0" y="270">UNREGISTERED</text><text fill="#eeeeee" stroke="none" font-family="Arial" font-size="24px" font-style="normal" font-weight="normal" text-decoration="none" x="0" y="300">UNREGISTERED</text><text fill="#eeeeee" stroke="none" font-family="Arial" font-size="24px" font-style="normal" font-weight="normal" text-decoration="none" x="0" y="330">UNREGISTERED</text><text fill="#eeeeee" stroke="none" font-family="Arial" font-size="24px" font-style="normal" font-weight="normal" text-decoration="none" x="0" y="360">UNREGISTERED</text><text fill="#eeeeee" stroke="none" font-family="Arial" font-size="24px" font-style="normal" font-weight="normal" text-decoration="none" x="0" y="390">UNREGISTERED</text><text fill="#eeeeee" stroke="none" font-family="Arial" font-size="24px" font-style="normal" font-weight="normal" text-decoration="none" x="0" y="420">UNREGISTERED</text><text fill="#eeeeee" stroke="none" font-family="Arial" font-size="24px" font-style="normal" font-weight="normal" text-decoration="none" x="0" y="450">UNREGISTERED</text><text fill="#eeeeee" stroke="none" font-family="Arial" font-size="24px" font-style="normal" font-weight="normal" text-decoration="none" x="0" y="480">UNREGISTERED</text><text fill="#eeeeee" stroke="none" font-family="Arial" font-size="24px" font-style="normal" font-weight="normal" text-decoration="none" x="0" y="510">UNREGISTERED</text><text fill="#eeeeee" stroke="none" font-family="Arial" font-size="24px" font-style="normal" font-weight="normal" text-decoration="none" x="200" y="0">UNREGISTERED</text><text fill="#eeeeee" stroke="none" font-family="Arial" font-size="24px" font-style="normal" font-weight="normal" text-decoration="none" x="200" y="30">UNREGISTERED</text><text fill="#eeeeee" stroke="none" font-family="Arial" font-size="24px" font-style="normal" font-weight="normal" text-decoration="none" x="200" y="60">UNREGISTERED</text><text fill="#eeeeee" stroke="none" font-family="Arial" font-size="24px" font-style="normal" font-weight="normal" text-decoration="none" x="200" y="90">UNREGISTERED</text><text fill="#eeeeee" stroke="none" font-family="Arial" font-size="24px" font-style="normal" font-weight="normal" text-decoration="none" x="200" y="120">UNREGISTERED</text><text fill="#eeeeee" stroke="none" font-family="Arial" font-size="24px" font-style="normal" font-weight="normal" text-decoration="none" x="200" y="150">UNREGISTERED</text><text fill="#eeeeee" stroke="none" font-family="Arial" font-size="24px" font-style="normal" font-weight="normal" text-decoration="none" x="200" y="180">UNREGISTERED</text><text fill="#eeeeee" stroke="none" font-family="Arial" font-size="24px" font-style="normal" font-weight="normal" text-decoration="none" x="200" y="210">UNREGISTERED</text><text fill="#eeeeee" stroke="none" font-family="Arial" font-size="24px" font-style="normal" font-weight="normal" text-decoration="none" x="200" y="240">UNREGISTERED</text><text fill="#eeeeee" stroke="none" font-family="Arial" font-size="24px" font-style="normal" font-weight="normal" text-decoration="none" x="200" y="270">UNREGISTERED</text><text fill="#eeeeee" stroke="none" font-family="Arial" font-size="24px" font-style="normal" font-weight="normal" text-decoration="none" x="200" y="300">UNREGISTERED</text><text fill="#eeeeee" stroke="none" font-family="Arial" font-size="24px" font-style="normal" font-weight="normal" text-decoration="none" x="200" y="330">UNREGISTERED</text><text fill="#eeeeee" stroke="none" font-family="Arial" font-size="24px" font-style="normal" font-weight="normal" text-decoration="none" x="200" y="360">UNREGISTERED</text><text fill="#eeeeee" stroke="none" font-family="Arial" font-size="24px" font-style="normal" font-weight="normal" text-decoration="none" x="200" y="390">UNREGISTERED</text><text fill="#eeeeee" stroke="none" font-family="Arial" font-size="24px" font-style="normal" font-weight="normal" text-decoration="none" x="200" y="420">UNREGISTERED</text><text fill="#eeeeee" stroke="none" font-family="Arial" font-size="24px" font-style="normal" font-weight="normal" text-decoration="none" x="200" y="450">UNREGISTERED</text><text fill="#eeeeee" stroke="none" font-family="Arial" font-size="24px" font-style="normal" font-weight="normal" text-decoration="none" x="200" y="480">UNREGISTERED</text><text fill="#eeeeee" stroke="none" font-family="Arial" font-size="24px" font-style="normal" font-weight="normal" text-decoration="none" x="200" y="510">UNREGISTERED</text><text fill="#eeeeee" stroke="none" font-family="Arial" font-size="24px" font-style="normal" font-weight="normal" text-decoration="none" x="400" y="0">UNREGISTERED</text><text fill="#eeeeee" stroke="none" font-family="Arial" font-size="24px" font-style="normal" font-weight="normal" text-decoration="none" x="400" y="30">UNREGISTERED</text><text fill="#eeeeee" stroke="none" font-family="Arial" font-size="24px" font-style="normal" font-weight="normal" text-decoration="none" x="400" y="60">UNREGISTERED</text><text fill="#eeeeee" stroke="none" font-family="Arial" font-size="24px" font-style="normal" font-weight="normal" text-decoration="none" x="400" y="90">UNREGISTERED</text><text fill="#eeeeee" stroke="none" font-family="Arial" font-size="24px" font-style="normal" font-weight="normal" text-decoration="none" x="400" y="120">UNREGISTERED</text><text fill="#eeeeee" stroke="none" font-family="Arial" font-size="24px" font-style="normal" font-weight="normal" text-decoration="none" x="400" y="150">UNREGISTERED</text><text fill="#eeeeee" stroke="none" font-family="Arial" font-size="24px" font-style="normal" font-weight="normal" text-decoration="none" x="400" y="180">UNREGISTERED</text><text fill="#eeeeee" stroke="none" font-family="Arial" font-size="24px" font-style="normal" font-weight="normal" text-decoration="none" x="400" y="210">UNREGISTERED</text><text fill="#eeeeee" stroke="none" font-family="Arial" font-size="24px" font-style="normal" font-weight="normal" text-decoration="none" x="400" y="240">UNREGISTERED</text><text fill="#eeeeee" stroke="none" font-family="Arial" font-size="24px" font-style="normal" font-weight="normal" text-decoration="none" x="400" y="270">UNREGISTERED</text><text fill="#eeeeee" stroke="none" font-family="Arial" font-size="24px" font-style="normal" font-weight="normal" text-decoration="none" x="400" y="300">UNREGISTERED</text><text fill="#eeeeee" stroke="none" font-family="Arial" font-size="24px" font-style="normal" font-weight="normal" text-decoration="none" x="400" y="330">UNREGISTERED</text><text fill="#eeeeee" stroke="none" font-family="Arial" font-size="24px" font-style="normal" font-weight="normal" text-decoration="none" x="400" y="360">UNREGISTERED</text><text fill="#eeeeee" stroke="none" font-family="Arial" font-size="24px" font-style="normal" font-weight="normal" text-decoration="none" x="400" y="390">UNREGISTERED</text><text fill="#eeeeee" stroke="none" font-family="Arial" font-size="24px" font-style="normal" font-weight="normal" text-decoration="none" x="400" y="420">UNREGISTERED</text><text fill="#eeeeee" stroke="none" font-family="Arial" font-size="24px" font-style="normal" font-weight="normal" text-decoration="none" x="400" y="450">UNREGISTERED</text><text fill="#eeeeee" stroke="none" font-family="Arial" font-size="24px" font-style="normal" font-weight="normal" text-decoration="none" x="400" y="480">UNREGISTERED</text><text fill="#eeeeee" stroke="none" font-family="Arial" font-size="24px" font-style="normal" font-weight="normal" text-decoration="none" x="400" y="510">UNREGISTERED</text><text fill="#eeeeee" stroke="none" font-family="Arial" font-size="24px" font-style="normal" font-weight="normal" text-decoration="none" x="600" y="0">UNREGISTERED</text><text fill="#eeeeee" stroke="none" font-family="Arial" font-size="24px" font-style="normal" font-weight="normal" text-decoration="none" x="600" y="30">UNREGISTERED</text><text fill="#eeeeee" stroke="none" font-family="Arial" font-size="24px" font-style="normal" font-weight="normal" text-decoration="none" x="600" y="60">UNREGISTERED</text><text fill="#eeeeee" stroke="none" font-family="Arial" font-size="24px" font-style="normal" font-weight="normal" text-decoration="none" x="600" y="90">UNREGISTERED</text><text fill="#eeeeee" stroke="none" font-family="Arial" font-size="24px" font-style="normal" font-weight="normal" text-decoration="none" x="600" y="120">UNREGISTERED</text><text fill="#eeeeee" stroke="none" font-family="Arial" font-size="24px" font-style="normal" font-weight="normal" text-decoration="none" x="600" y="150">UNREGISTERED</text><text fill="#eeeeee" stroke="none" font-family="Arial" font-size="24px" font-style="normal" font-weight="normal" text-decoration="none" x="600" y="180">UNREGISTERED</text><text fill="#eeeeee" stroke="none" font-family="Arial" font-size="24px" font-style="normal" font-weight="normal" text-decoration="none" x="600" y="210">UNREGISTERED</text><text fill="#eeeeee" stroke="none" font-family="Arial" font-size="24px" font-style="normal" font-weight="normal" text-decoration="none" x="600" y="240">UNREGISTERED</text><text fill="#eeeeee" stroke="none" font-family="Arial" font-size="24px" font-style="normal" font-weight="normal" text-decoration="none" x="600" y="270">UNREGISTERED</text><text fill="#eeeeee" stroke="none" font-family="Arial" font-size="24px" font-style="normal" font-weight="normal" text-decoration="none" x="600" y="300">UNREGISTERED</text><text fill="#eeeeee" stroke="none" font-family="Arial" font-size="24px" font-style="normal" font-weight="normal" text-decoration="none" x="600" y="330">UNREGISTERED</text><text fill="#eeeeee" stroke="none" font-family="Arial" font-size="24px" font-style="normal" font-weight="normal" text-decoration="none" x="600" y="360">UNREGISTERED</text><text fill="#eeeeee" stroke="none" font-family="Arial" font-size="24px" font-style="normal" font-weight="normal" text-decoration="none" x="600" y="390">UNREGISTERED</text><text fill="#eeeeee" stroke="none" font-family="Arial" font-size="24px" font-style="normal" font-weight="normal" text-decoration="none" x="600" y="420">UNREGISTERED</text><text fill="#eeeeee" stroke="none" font-family="Arial" font-size="24px" font-style="normal" font-weight="normal" text-decoration="none" x="600" y="450">UNREGISTERED</text><text fill="#eeeeee" stroke="none" font-family="Arial" font-size="24px" font-style="normal" font-weight="normal" text-decoration="none" x="600" y="480">UNREGISTERED</text><text fill="#eeeeee" stroke="none" font-family="Arial" font-size="24px" font-style="normal" font-weight="normal" text-decoration="none" x="600" y="510">UNREGISTERED</text><g transform="translate(-6,-62) scale(1,1)"><path fill="#C0C0C0" stroke="none" d="M 375 265 L 500.50146484375 265 L 500.50146484375 298 L 375 298" opacity="0.2"/></g><g transform="translate(-6,-62) scale(1,1)"><path fill="#C0C0C0" stroke="none" d="M 375 265 L 385 255 L 510.50146484375 255 L 500.50146484375 265" opacity="0.2"/></g><g transform="translate(-6,-62) scale(1,1)"><path fill="#C0C0C0" stroke="none" d="M 510.50146484375 255 L 500.50146484375 265 L 500.50146484375 298 L 510.50146484375 288" opacity="0.2"/></g><g transform="translate(-6,-62) scale(1,1)"><path fill="#ffffff" stroke="none" d="M 368 258 L 493.50146484375 258 L 493.50146484375 291 L 368 291"/></g><g transform="translate(-6,-62) scale(1,1)"><path fill="#ffffff" stroke="none" d="M 368 258 L 378 248 L 503.50146484375 248 L 493.50146484375 258"/></g><g transform="translate(-6,-62) scale(1,1)"><path fill="#ffffff" stroke="none" d="M 503.50146484375 248 L 493.50146484375 258 L 493.50146484375 291 L 503.50146484375 281"/></g><g transform="translate(-6,-62) scale(1,1)"><path fill="none" stroke="#000000" d="M 368 258 L 493.50146484375 258 L 493.50146484375 291 L 368 291 L 368 258" stroke-miterlimit="10"/></g><g transform="translate(-6,-62) scale(1,1)"><path fill="none" stroke="#000000" d="M 368 258 L 378 248 L 503.50146484375 248 L 493.50146484375 258 L 368 258" stroke-miterlimit="10"/></g><g transform="translate(-6,-62) scale(1,1)"><path fill="none" stroke="#000000" d="M 503.50146484375 248 L 493.50146484375 258 L 493.50146484375 291 L 503.50146484375 281 L 503.50146484375 248" stroke-miterlimit="10"/></g><g transform="translate(-6,-62) scale(1,1)"><g><path fill="none" stroke="none"/><text fill="#000000" stroke="none" font-family="Arial" font-size="13px" font-style="normal" font-weight="bold" text-decoration="none" x="372.5" y="276">SERVER MACHINE</text></g></g><g transform="translate(-6,-62) scale(1,1)"><path fill="#C0C0C0" stroke="none" d="M 103 305 L 223.68359375 305 L 223.68359375 338 L 103 338" opacity="0.2"/></g><g transform="translate(-6,-62) scale(1,1)"><path fill="#C0C0C0" stroke="none" d="M 103 305 L 113 295 L 233.68359375 295 L 223.68359375 305" opacity="0.2"/></g><g transform="translate(-6,-62) scale(1,1)"><path fill="#C0C0C0" stroke="none" d="M 233.68359375 295 L 223.68359375 305 L 223.68359375 338 L 233.68359375 328" opacity="0.2"/></g><g transform="translate(-6,-62) scale(1,1)"><path fill="#ffffff" stroke="none" d="M 96 298 L 216.68359375 298 L 216.68359375 331 L 96 331"/></g><g transform="translate(-6,-62) scale(1,1)"><path fill="#ffffff" stroke="none" d="M 96 298 L 106 288 L 226.68359375 288 L 216.68359375 298"/></g><g transform="translate(-6,-62) scale(1,1)"><path fill="#ffffff" stroke="none" d="M 226.68359375 288 L 216.68359375 298 L 216.68359375 331 L 226.68359375 321"/></g><g transform="translate(-6,-62) scale(1,1)"><path fill="none" stroke="#000000" d="M 96 298 L 216.68359375 298 L 216.68359375 331 L 96 331 L 96 298" stroke-miterlimit="10"/></g><g transform="translate(-6,-62) scale(1,1)"><path fill="none" stroke="#000000" d="M 96 298 L 106 288 L 226.68359375 288 L 216.68359375 298 L 96 298" stroke-miterlimit="10"/></g><g transform="translate(-6,-62) scale(1,1)"><path fill="none" stroke="#000000" d="M 226.68359375 288 L 216.68359375 298 L 216.68359375 331 L 226.68359375 321 L 226.68359375 288" stroke-miterlimit="10"/></g><g transform="translate(-6,-62) scale(1,1)"><g><path fill="none" stroke="none"/><text fill="#000000" stroke="none" font-family="Arial" font-size="13px" font-style="normal" font-weight="bold" text-decoration="none" x="100.5" y="316">PC or smartphone</text></g></g><g transform="translate(-6,-62) scale(1,1)"><path fill="#C0C0C0" stroke="none" d="M 68.459814453125 455 L 95.899814453125 455 L 107.659814453125 466.76 L 107.659814453125 504 L 68.459814453125 504" opacity="0.2"/></g><g transform="translate(-6,-62) scale(1,1)"><path fill="#ffffff" stroke="none" d="M 61.459814453125006 448 L 88.899814453125 448 L 100.659814453125 459.76 L 100.659814453125 497 L 61.459814453125006 497"/></g><g transform="translate(-6,-62) scale(1,1)"><path fill="none" stroke="#000000" d="M 61.459814453125006 448 L 88.899814453125 448 L 100.659814453125 459.76 L 100.659814453125 497 L 61.459814453125006 497 L 61.459814453125006 448" stroke-miterlimit="10"/></g><g transform="translate(-6,-62) scale(1,1)"><path fill="none" stroke="#000000" d="M 88.899814453125 448 L 88.899814453125 459.76 L 100.659814453125 459.76 L 88.899814453125 448" stroke-miterlimit="10"/></g><g transform="translate(-6,-62) scale(1,1)"><g><path fill="none" stroke="none"/><text fill="#000000" stroke="none" font-family="Arial" font-size="13px" font-style="normal" font-weight="bold" text-decoration="none" x="20.5" y="515">Web EZwallet client</text></g></g><g transform="translate(-6,-62) scale(1,1)"><path fill="#C0C0C0" stroke="none" d="M 447 409 L 530.61328125 409 L 530.61328125 442 L 447 442" opacity="0.2"/></g><g transform="translate(-6,-62) scale(1,1)"><path fill="#C0C0C0" stroke="none" d="M 447 409 L 457 399 L 540.61328125 399 L 530.61328125 409" opacity="0.2"/></g><g transform="translate(-6,-62) scale(1,1)"><path fill="#C0C0C0" stroke="none" d="M 540.61328125 399 L 530.61328125 409 L 530.61328125 442 L 540.61328125 432" opacity="0.2"/></g><g transform="translate(-6,-62) scale(1,1)"><path fill="#ffffff" stroke="none" d="M 440 402 L 523.61328125 402 L 523.61328125 435 L 440 435"/></g><g transform="translate(-6,-62) scale(1,1)"><path fill="#ffffff" stroke="none" d="M 440 402 L 450 392 L 533.61328125 392 L 523.61328125 402"/></g><g transform="translate(-6,-62) scale(1,1)"><path fill="#ffffff" stroke="none" d="M 533.61328125 392 L 523.61328125 402 L 523.61328125 435 L 533.61328125 425"/></g><g transform="translate(-6,-62) scale(1,1)"><path fill="none" stroke="#000000" d="M 440 402 L 523.61328125 402 L 523.61328125 435 L 440 435 L 440 402" stroke-miterlimit="10"/></g><g transform="translate(-6,-62) scale(1,1)"><path fill="none" stroke="#000000" d="M 440 402 L 450 392 L 533.61328125 392 L 523.61328125 402 L 440 402" stroke-miterlimit="10"/></g><g transform="translate(-6,-62) scale(1,1)"><path fill="none" stroke="#000000" d="M 533.61328125 392 L 523.61328125 402 L 523.61328125 435 L 533.61328125 425 L 533.61328125 392" stroke-miterlimit="10"/></g><g transform="translate(-6,-62) scale(1,1)"><g><path fill="none" stroke="none"/><text fill="#000000" stroke="none" font-family="Arial" font-size="13px" font-style="normal" font-weight="bold" text-decoration="none" x="444.5" y="420">DB SERVER</text></g></g><g transform="translate(-6,-62) scale(1,1)"><path fill="#C0C0C0" stroke="none" d="M 569.5044921875 495 L 596.9444921875 495 L 608.7044921875 506.76 L 608.7044921875 544 L 569.5044921875 544" opacity="0.2"/></g><g transform="translate(-6,-62) scale(1,1)"><path fill="#ffffff" stroke="none" d="M 562.5044921875 488 L 589.9444921875 488 L 601.7044921875 499.76 L 601.7044921875 537 L 562.5044921875 537"/></g><g transform="translate(-6,-62) scale(1,1)"><path fill="none" stroke="#000000" d="M 562.5044921875 488 L 589.9444921875 488 L 601.7044921875 499.76 L 601.7044921875 537 L 562.5044921875 537 L 562.5044921875 488" stroke-miterlimit="10"/></g><g transform="translate(-6,-62) scale(1,1)"><path fill="none" stroke="#000000" d="M 589.9444921875 488 L 589.9444921875 499.76 L 601.7044921875 499.76 L 589.9444921875 488" stroke-miterlimit="10"/></g><g transform="translate(-6,-62) scale(1,1)"><g><path fill="none" stroke="none"/><text fill="#000000" stroke="none" font-family="Arial" font-size="13px" font-style="normal" font-weight="bold" text-decoration="none" x="548.5" y="555">DB service</text></g></g><g transform="translate(-6,-62) scale(1,1)"><path fill="#C0C0C0" stroke="none" d="M 608.31357421875 79 L 635.75357421875 79 L 647.51357421875 90.76000000000002 L 647.51357421875 128 L 608.31357421875 128" opacity="0.2"/></g><g transform="translate(-6,-62) scale(1,1)"><path fill="#ffffff" stroke="none" d="M 601.31357421875 72 L 628.75357421875 72 L 640.51357421875 83.76000000000002 L 640.51357421875 121 L 601.31357421875 121"/></g><g transform="translate(-6,-62) scale(1,1)"><path fill="none" stroke="#000000" d="M 601.31357421875 72 L 628.75357421875 72 L 640.51357421875 83.76000000000002 L 640.51357421875 121 L 601.31357421875 121 L 601.31357421875 72" stroke-miterlimit="10"/></g><g transform="translate(-6,-62) scale(1,1)"><path fill="none" stroke="#000000" d="M 628.75357421875 72 L 628.75357421875 83.76000000000002 L 640.51357421875 83.76000000000002 L 628.75357421875 72" stroke-miterlimit="10"/></g><g transform="translate(-6,-62) scale(1,1)"><g><path fill="none" stroke="none"/><text fill="#000000" stroke="none" font-family="Arial" font-size="13px" font-style="normal" font-weight="bold" text-decoration="none" x="572.5" y="139">EZwallet Server</text></g></g><g transform="translate(-6,-62) scale(1,1)"><path fill="none" stroke="#000000" d="M 98 447 L 150 333" stroke-miterlimit="10" stroke-dasharray="3"/></g><g transform="translate(-6,-62) scale(1,1)"><path fill="none" stroke="#000000" d="M 149.6123367307624 343.9931668408009 L 150 333 L 141.95253785365975 340.49922349335054" stroke-miterlimit="10"/></g><g transform="translate(-6,-62) scale(1,1)"><g><path fill="none" stroke="none"/><text fill="#000000" stroke="none" font-family="Arial" font-size="13px" font-style="normal" font-weight="normal" text-decoration="none" x="69.5" y="382">«deploy»</text></g></g><g transform="translate(-6,-62) scale(1,1)"><path fill="none" stroke="#000000" d="M 549 487 L 507 437" stroke-miterlimit="10" stroke-dasharray="3"/></g><g transform="translate(-6,-62) scale(1,1)"><path fill="none" stroke="#000000" d="M 516.7598002695163 442.0740810694301 L 507 437 L 510.31330382111696 447.48913808608563" stroke-miterlimit="10"/></g><g transform="translate(-6,-62) scale(1,1)"><g><path fill="none" stroke="none"/><text fill="#000000" stroke="none" font-family="Arial" font-size="13px" font-style="normal" font-weight="normal" text-decoration="none" x="478.5" y="486">«deploy»</text></g></g><g transform="translate(-6,-62) scale(1,1)"><path fill="none" stroke="#000000" d="M 577 147 L 462 247" stroke-miterlimit="10" stroke-dasharray="3"/></g><g transform="translate(-6,-62) scale(1,1)"><path fill="none" stroke="#000000" d="M 466.90661461591975 237.15494372739076 L 462 247 L 472.43100651911107 243.50799441606074" stroke-miterlimit="10"/></g><g transform="translate(-6,-62) scale(1,1)"><g><path fill="none" stroke="none"/><text fill="#000000" stroke="none" font-family="Arial" font-size="13px" font-style="normal" font-weight="normal" text-decoration="none" x="477.5" y="180">«deploy»</text></g></g><g transform="translate(-6,-62) scale(1,1)"><path fill="none" stroke="#000000" d="M 229 300 L 367 280" stroke-miterlimit="10"/></g><g transform="translate(-6,-62) scale(1,1)"><g><path fill="none" stroke="none"/><text fill="#000000" stroke="none" font-family="Arial" font-size="13px" font-style="normal" font-weight="normal" text-decoration="none" x="257.5" y="280">+internet link</text></g></g><g transform="translate(-6,-62) scale(1,1)"><path fill="none" stroke="#000000" d="M 479 391 L 444 293" stroke-miterlimit="10"/></g><g transform="translate(-6,-62) scale(1,1)"><g><path fill="none" stroke="none"/><text fill="#000000" stroke="none" font-family="Arial" font-size="13px" font-style="normal" font-weight="normal" text-decoration="none" x="483.5" y="365">+internet link</text></g></g></g></svg>