<svg version="1.1" xmlns="http://www.w3.org/2000/svg" xmlns:xlink="http://www.w3.org/1999/xlink" width="484.38623046875" height="296"><defs/><g><g transform="translate(-78,-166) scale(1,1)"><rect fill="#C0C0C0" stroke="none" x="295" y="183" width="110.15625" height="44" opacity="0.2"/></g><g transform="translate(-78,-166) scale(1,1)"><rect fill="#ffffff" stroke="none" x="288" y="176" width="110.15625" height="44"/></g><g transform="translate(-78,-166) scale(1,1)"><path fill="none" stroke="#000000" d="M 288 176 L 398.15625 176 L 398.15625 220 L 288 220 L 288 176 Z Z" stroke-miterlimit="10"/></g><g transform="translate(-78,-166) scale(1,1)"><path fill="none" stroke="#000000" d="M 288 201 L 398.15625 201" stroke-miterlimit="10"/></g><g transform="translate(-78,-166) scale(1,1)"><path fill="none" stroke="#000000" d="M 288 211 L 398.15625 211" stroke-miterlimit="10"/></g><g transform="translate(-78,-166) scale(1,1)"><g><path fill="none" stroke="none"/><text fill="#000000" stroke="none" font-family="Arial" font-size="13px" font-style="normal" font-weight="bold" text-decoration="none" x="292.5" y="194">EZwallet system</text></g></g><g transform="translate(-78,-166) scale(1,1)"><rect fill="#C0C0C0" stroke="none" x="135" y="311" width="99.3017578125" height="44" opacity="0.2"/></g><g transform="translate(-78,-166) scale(1,1)"><rect fill="#ffffff" stroke="none" x="128" y="304" width="99.3017578125" height="44"/></g><g transform="translate(-78,-166) scale(1,1)"><path fill="none" stroke="#000000" d="M 128 304 L 227.3017578125 304 L 227.3017578125 348 L 128 348 L 128 304 Z Z" stroke-miterlimit="10"/></g><g transform="translate(-78,-166) scale(1,1)"><path fill="none" stroke="#000000" d="M 128 329 L 227.3017578125 329" stroke-miterlimit="10"/></g><g transform="translate(-78,-166) scale(1,1)"><path fill="none" stroke="#000000" d="M 128 339 L 227.3017578125 339" stroke-miterlimit="10"/></g><g transform="translate(-78,-166) scale(1,1)"><g><path fill="none" stroke="none"/><text fill="#000000" stroke="none" font-family="Arial" font-size="13px" font-style="normal" font-weight="bold" text-decoration="none" x="132.5" y="322">EZwallet client</text></g></g><g transform="translate(-78,-166) scale(1,1)"><rect fill="#C0C0C0" stroke="none" x="455" y="311" width="104.38623046875" height="44" opacity="0.2"/></g><g transform="translate(-78,-166) scale(1,1)"><rect fill="#ffffff" stroke="none" x="448" y="304" width="104.38623046875" height="44"/></g><g transform="translate(-78,-166) scale(1,1)"><path fill="none" stroke="#000000" d="M 448 304 L 552.38623046875 304 L 552.38623046875 348 L 448 348 L 448 304 Z Z" stroke-miterlimit="10"/></g><g transform="translate(-78,-166) scale(1,1)"><path fill="none" stroke="#000000" d="M 448 329 L 552.38623046875 329" stroke-miterlimit="10"/></g><g transform="translate(-78,-166) scale(1,1)"><path fill="none" stroke="#000000" d="M 448 339 L 552.38623046875 339" stroke-miterlimit="10"/></g><g transform="translate(-78,-166) scale(1,1)"><g><path fill="none" stroke="none"/><text fill="#000000" stroke="none" font-family="Arial" font-size="13px" font-style="normal" font-weight="bold" text-decoration="none" x="452.5" y="322">EZwallet server</text></g></g><g transform="translate(-78,-166) scale(1,1)"><rect fill="#C0C0C0" stroke="none" x="95" y="415" width="73.771484375" height="44" opacity="0.2"/></g><g transform="translate(-78,-166) scale(1,1)"><rect fill="#ffffff" stroke="none" x="88" y="408" width="73.771484375" height="44"/></g><g transform="translate(-78,-166) scale(1,1)"><path fill="none" stroke="#000000" d="M 88 408 L 161.771484375 408 L 161.771484375 452 L 88 452 L 88 408 Z Z" stroke-miterlimit="10"/></g><g transform="translate(-78,-166) scale(1,1)"><path fill="none" stroke="#000000" d="M 88 433 L 161.771484375 433" stroke-miterlimit="10"/></g><g transform="translate(-78,-166) scale(1,1)"><path fill="none" stroke="#000000" d="M 88 443 L 161.771484375 443" stroke-miterlimit="10"/></g><g transform="translate(-78,-166) scale(1,1)"><g><path fill="none" stroke="none"/><text fill="#000000" stroke="none" font-family="Arial" font-size="13px" font-style="normal" font-weight="bold" text-decoration="none" x="92.5" y="426">Web client</text></g></g><g transform="translate(-78,-166) scale(1,1)"><path fill="none" stroke="#000000" d="M 207 303 L 313 221" stroke-miterlimit="10"/></g><g transform="translate(-78,-166) scale(1,1)"><path fill="#FFFFFF" stroke="none" d="M 307.53745109795307 230.5478039094205 L 313 221 L 302.3860777390088 223.88871151859013 L 295.5989530049019 234.46118729809476"/></g><g transform="translate(-78,-166) scale(1,1)"><path fill="none" stroke="#000000" d="M 307.53745109795307 230.5478039094205 L 313 221 L 302.3860777390088 223.88871151859013 L 295.5989530049019 234.46118729809476 L 307.53745109795307 230.5478039094205" stroke-miterlimit="10"/></g><g transform="translate(-78,-166) scale(1,1)"><path fill="none" stroke="#000000" d="M 472 303 L 371 221" stroke-miterlimit="10"/></g><g transform="translate(-78,-166) scale(1,1)"><path fill="#FFFFFF" stroke="none" d="M 381.54305566072185 224.13751132825388 L 371 221 L 376.2365106158657 230.67362168838156 L 388.07967946177524 234.86667045411454"/></g><g transform="translate(-78,-166) scale(1,1)"><path fill="none" stroke="#000000" d="M 381.54305566072185 224.13751132825388 L 371 221 L 376.2365106158657 230.67362168838156 L 388.07967946177524 234.86667045411454 L 381.54305566072185 224.13751132825388" stroke-miterlimit="10"/></g><g transform="translate(-78,-166) scale(1,1)"><path fill="none" stroke="#000000" d="M 136 407 L 165 349" stroke-miterlimit="10"/></g><g transform="translate(-78,-166) scale(1,1)"><path fill="#FFFFFF" stroke="none" d="M 163.44044155800506 370.9446525938781 L 165 349 L 148.38001299009446 363.41443830992284"/></g><g transform="translate(-78,-166) scale(1,1)"><path fill="none" stroke="#000000" d="M 163.44044155800506 370.9446525938781 L 165 349 L 148.38001299009446 363.41443830992284 L 163.44044155800506 370.9446525938781" stroke-miterlimit="10"/></g></g></svg>